<svg xmlns="http://www.w3.org/2000/svg" xmlns:xlink="http://www.w3.org/1999/xlink" viewBox="0 0 562.1 356.06"><defs><style>.cls-1{fill:#3c3c3b;}.cls-2{fill:url(#Gradiente_sem_nome_43);}.cls-3{fill:url(#Gradiente_sem_nome_27);}.cls-4{fill:url(#Gradiente_sem_nome_27-2);}.cls-5{fill:url(#Gradiente_sem_nome_37);}.cls-6{font-size:9.87px;fill:#9d9d9c;font-family:Optima-Bold, Optima;font-weight:700;}.cls-7{font-family:Optima-Regular, Optima;font-weight:400;}</style><linearGradient id="Gradiente_sem_nome_43" x1="279.35" y1="352.85" x2="279.35" y2="344.26" gradientTransform="translate(562.27 694.21) rotate(179.41)" gradientUnits="userSpaceOnUse"><stop offset="0.04" stop-color="#ebf1f9"/><stop offset="0.06" stop-color="#e2e7ef"/><stop offset="0.19" stop-color="#9ea1a7"/><stop offset="0.3" stop-color="#6d6d72"/><stop offset="0.38" stop-color="#4e4d51"/><stop offset="0.43" stop-color="#434145"/><stop offset="0.44" stop-color="#39383b"/><stop offset="0.46" stop-color="#323234"/><stop offset="0.5" stop-color="#303032"/><stop offset="0.5" stop-color="#353537"/><stop offset="0.53" stop-color="#5f5f5f"/><stop offset="0.55" stop-color="#858584"/><stop offset="0.58" stop-color="#a6a6a4"/><stop offset="0.61" stop-color="#c1c1be"/><stop offset="0.64" stop-color="#d7d7d4"/><stop offset="0.68" stop-color="#e8e8e4"/><stop offset="0.73" stop-color="#f4f4f0"/><stop offset="0.79" stop-color="#fbfbf6"/><stop offset="0.97" stop-color="#fdfdf8"/><stop offset="0.98" stop-color="#fefefd"/><stop offset="1" stop-color="#fff"/></linearGradient><linearGradient id="Gradiente_sem_nome_27" x1="-138.56" y1="346.39" x2="-138.56" y2="356.06" gradientTransform="matrix(-1, 0, 0, 1, 282.88, 0)" gradientUnits="userSpaceOnUse"><stop offset="0.14" stop-color="#5c5c5f"/><stop offset="0.15" stop-color="#68686c"/><stop offset="0.16" stop-color="#828287"/><stop offset="0.18" stop-color="#97979d"/><stop offset="0.19" stop-color="#a7a7ae"/><stop offset="0.22" stop-color="#b2b2b9"/><stop offset="0.24" stop-color="#b8b8c0"/><stop offset="0.33" stop-color="#babac2"/><stop offset="0.36" stop-color="#9d9da4"/><stop offset="0.4" stop-color="#7f7f85"/><stop offset="0.44" stop-color="#656469"/><stop offset="0.49" stop-color="#504f53"/><stop offset="0.55" stop-color="#403f42"/><stop offset="0.62" stop-color="#343337"/><stop offset="0.72" stop-color="#2e2d30"/><stop offset="1" stop-color="#2c2b2e"/></linearGradient><linearGradient id="Gradiente_sem_nome_27-2" x1="-419.33" y1="346.39" x2="-419.33" y2="356.06" gradientTransform="translate(560)" xlink:href="#Gradiente_sem_nome_27"/><linearGradient id="Gradiente_sem_nome_37" x1="0.77" y1="344.71" x2="561.9" y2="344.71" gradientUnits="userSpaceOnUse"><stop offset="0.04" stop-color="#ebf1f9"/><stop offset="0.05" stop-color="#e2e7ef"/><stop offset="0.08" stop-color="#9ea1a7"/><stop offset="0.11" stop-color="#6d6d72"/><stop offset="0.13" stop-color="#4e4d51"/><stop offset="0.14" stop-color="#434145"/><stop offset="0.25" stop-color="#39383b"/><stop offset="0.43" stop-color="#323234"/><stop offset="0.81" stop-color="#303032"/><stop offset="0.82" stop-color="#4b4e52"/><stop offset="0.83" stop-color="#6b7176"/><stop offset="0.84" stop-color="#869096"/><stop offset="0.85" stop-color="#9ea9b2"/><stop offset="0.87" stop-color="#b1bec8"/><stop offset="0.88" stop-color="#bfced9"/><stop offset="0.9" stop-color="#cadae4"/><stop offset="0.93" stop-color="#cfe0eb"/><stop offset="1" stop-color="#d1e2ed"/></linearGradient></defs><g id="Camada_2" data-name="Camada 2"><g id="Camada_6" data-name="Camada 6"><path class="cls-1" d="M510.27,335.22v-318c-4-15.5-16.5-17-16.5-17s-395.5-.5-420,0-22.5,23-22.5,23v306c0,22,8.5,18.29,8.5,18.29s404-4.48,428,0S510.27,335.22,510.27,335.22Zm-12.83-5.67h-433v-316h433Z"/></g><g id="Camada_4" data-name="Camada 4"><polygon class="cls-2" points="334.91 349.91 334.85 343.69 223.73 344.84 223.82 353.42 334.91 349.91"/></g><g id="Camada_3" data-name="Camada 3"><path class="cls-3" d="M562.1,346.39a231.8,231.8,0,0,1-58.7,9.54c-4.08.13-7,.13-8.38.12-24.61-.05-103.26,0-214.25,0l.5-8.75"/><path class="cls-4" d="M0,346.39a231.81,231.81,0,0,0,58.71,9.54c4.07.13,7,.13,8.37.12,24.61-.05,103.26,0,214.25,0l-.5-8.75"/></g><g id="Camada_2-2" data-name="Camada 2"><polygon class="cls-5" points="561.89 343.03 0.77 343.03 0.77 346.39 227.69 346.39 227.69 344.71 334.73 344.71 334.73 346.39 561.89 346.39 561.89 343.03"/></g><g id="Camada_7" data-name="Camada 7"><text class="cls-6" transform="translate(256.76 339.79) scale(1.01 1)">Seu<tspan class="cls-7" x="15.36" y="0">siteOnline</tspan></text></g></g></svg>