<svg xmlns="http://www.w3.org/2000/svg" viewBox="0 0 648.56 383.18"><defs><style>.cls-1{fill:none;stroke:#ebebeb;stroke-miterlimit:10;}.cls-2{fill:#a6a6a6;}.cls-3{fill:#ebebeb;}.cls-4{fill:#ffc727;}.cls-5{fill:#263238;}.cls-6{fill:#37474f;}.cls-7{fill:#dbdbdb;}.cls-8{fill:#fff;}.cls-9{fill:#455a64;}.cls-10{fill:#c7c7c7;}.cls-11{opacity:0.1;}.cls-12{fill:#c95f50;}.cls-13{fill:#ff9bbc;}</style></defs><g id="Camada_2" data-name="Camada 2"><g id="Background_Complete" data-name="Background Complete"><rect class="cls-1" x="67.34" y="0.5" width="125.64" height="85.64"/><path class="cls-2" d="M76.74,5.58a2.52,2.52,0,1,1-2.52-2.52A2.52,2.52,0,0,1,76.74,5.58Z"/><path class="cls-3" d="M87,5.58a2.52,2.52,0,1,1-2.52-2.52A2.52,2.52,0,0,1,87,5.58Z"/><path class="cls-4" d="M97.33,5.58a2.53,2.53,0,1,1-2.52-2.52A2.52,2.52,0,0,1,97.33,5.58Z"/><line class="cls-1" x1="67.34" y1="10.52" x2="192.98" y2="10.52"/><polyline class="cls-1" points="607.29 313.55 607.29 187.89 634.02 151.4 634.02 83.07"/><path class="cls-1" d="M631.65,80.73A2.38,2.38,0,1,0,634,78.36,2.37,2.37,0,0,0,631.65,80.73Z"/><polyline class="cls-1" points="614.18 313.55 614.18 192.29 640.91 155.81 640.91 108.07"/><path class="cls-1" d="M638.53,105.73a2.38,2.38,0,1,0,2.38-2.37A2.38,2.38,0,0,0,638.53,105.73Z"/><line class="cls-1" x1="600.66" y1="313.55" x2="600.66" y2="147.14"/><path class="cls-1" d="M598.28,144.76a2.38,2.38,0,1,0,2.38-2.37A2.38,2.38,0,0,0,598.28,144.76Z"/><polyline class="cls-1" points="594.27 313.55 594.27 228.97 576.13 194.75 576.13 133.38"/><path class="cls-1" d="M573.75,131a2.38,2.38,0,1,0,2.38-2.38A2.37,2.37,0,0,0,573.75,131Z"/><polyline class="cls-1" points="587.92 313.55 587.92 232.63 566.53 194.79 566.53 154.38"/><path class="cls-1" d="M564.15,152a2.38,2.38,0,1,0,2.38-2.37A2.39,2.39,0,0,0,564.15,152Z"/><polyline class="cls-1" points="44.88 313.55 44.88 247.89 18.15 211.4 18.15 173.07"/><path class="cls-1" d="M20.52,170.73a2.38,2.38,0,1,1-2.37-2.37A2.37,2.37,0,0,1,20.52,170.73Z"/><polyline class="cls-1" points="37.99 313.55 37.99 252.29 11.26 215.81 11.26 198.07"/><path class="cls-1" d="M13.64,195.73a2.38,2.38,0,1,1-2.38-2.37A2.39,2.39,0,0,1,13.64,195.73Z"/><line class="cls-1" x1="51.51" y1="313.55" x2="51.51" y2="207.14"/><path class="cls-1" d="M53.89,204.76a2.38,2.38,0,1,1-2.38-2.37A2.38,2.38,0,0,1,53.89,204.76Z"/><polyline class="cls-1" points="57.9 313.55 57.9 258.98 76.04 224.75 76.04 163.38"/><path class="cls-1" d="M78.42,161A2.38,2.38,0,1,1,76,158.63,2.37,2.37,0,0,1,78.42,161Z"/><polyline class="cls-1" points="64.25 313.55 64.25 262.63 85.64 224.79 85.64 184.38"/><path class="cls-1" d="M88,182a2.38,2.38,0,1,1-2.37-2.37A2.38,2.38,0,0,1,88,182Z"/><path class="cls-3" d="M635.23,66.09l7-11.26-3.44-2.13a3.12,3.12,0,0,1-1.46-3q.08-1,.06-2A3.13,3.13,0,0,1,639,44.9L642.58,43l-6.26-11.68-3.57,1.92a3.15,3.15,0,0,1-3.29-.21,16.17,16.17,0,0,0-1.68-1,3.15,3.15,0,0,1-1.66-2.86l.13-4.05L613,24.66l-.13,4.06a3.13,3.13,0,0,1-1.84,2.74c-.3.14-.59.29-.87.44l-.85.48a3.14,3.14,0,0,1-3.29,0l-3.47-2.15-7,11.25L599,43.65a3.13,3.13,0,0,1,1.46,3,18.44,18.44,0,0,0-.06,2,3.17,3.17,0,0,1-1.64,2.85l-3.58,1.92L601.48,65l3.57-1.92a3.17,3.17,0,0,1,3.29.21,16.17,16.17,0,0,0,1.68,1,3.13,3.13,0,0,1,1.66,2.86l-.12,4.06,13.23.41.13-4.07a3.13,3.13,0,0,1,1.84-2.73c.29-.13.58-.28.87-.44s.57-.31.85-.48a3.14,3.14,0,0,1,3.3,0ZM624,57.73a10.85,10.85,0,1,1,4.44-14.68A10.84,10.84,0,0,1,624,57.73Z"/><path class="cls-3" d="M26.47,166.09l8-4.63L33.08,159a2.19,2.19,0,0,1,.08-2.31,13,13,0,0,0,.69-1.21,2.21,2.21,0,0,1,2-1.22h2.84V145H35.81a2.21,2.21,0,0,1-2-1.22,13,13,0,0,0-.69-1.21,2.19,2.19,0,0,1-.08-2.31l1.42-2.46-8-4.63L25,135.63a2.21,2.21,0,0,1-2,1.08l-.69,0-.68,0a2.21,2.21,0,0,1-2-1.07l-1.43-2.48-8,4.63,1.42,2.47a2.19,2.19,0,0,1-.08,2.31q-.37.59-.69,1.2a2.21,2.21,0,0,1-2,1.22H6v9.27H8.82a2.21,2.21,0,0,1,2,1.22q.32.61.69,1.2a2.19,2.19,0,0,1,.08,2.31l-1.42,2.47,8,4.63,1.43-2.46a2.18,2.18,0,0,1,2-1.08l.68,0,.69,0a2.21,2.21,0,0,1,2,1.08Zm-4.16-8.87a7.6,7.6,0,1,1,7.61-7.59A7.59,7.59,0,0,1,22.31,157.22Z"/><path class="cls-3" d="M594.36,74.23l-4.63-8-2.46,1.42a2.21,2.21,0,0,1-2.31-.07,11.18,11.18,0,0,0-1.21-.7,2.21,2.21,0,0,1-1.22-2V62h-9.27v2.84a2.21,2.21,0,0,1-1.22,2,11.18,11.18,0,0,0-1.21.7,2.21,2.21,0,0,1-2.31.07l-2.46-1.42-4.63,8,2.47,1.42a2.22,2.22,0,0,1,1.08,2c0,.22,0,.45,0,.68s0,.45,0,.68a2.22,2.22,0,0,1-1.08,2l-2.47,1.43,4.63,8,2.47-1.42a2.21,2.21,0,0,1,2.31.08c.39.25.79.49,1.2.7a2.19,2.19,0,0,1,1.22,2v2.85h9.27V91.87a2.19,2.19,0,0,1,1.22-2c.41-.21.81-.45,1.2-.7a2.21,2.21,0,0,1,2.31-.08l2.47,1.42,4.63-8-2.46-1.42a2.2,2.2,0,0,1-1.08-2c0-.23,0-.46,0-.69s0-.46,0-.68a2.21,2.21,0,0,1,1.08-2Zm-8.87,4.15a7.6,7.6,0,1,1-7.59-7.6A7.59,7.59,0,0,1,585.49,78.38Z"/></g><g id="Plant"><path class="cls-4" d="M47.78,237.41c-6.39-13.13-17.57-19.88-30.17-16.15S3.06,242.56,12.46,247s18.81-8.52,23.78-11.18S47.78,237.41,47.78,237.41Z"/><path class="cls-5" d="M54,272.36c0-1.58-.09-3.16-.15-4.74l-.33-9.49c-.22-5.78-.84-11.45-3.24-16.78a26,26,0,0,0-10.13-11.68,21.28,21.28,0,0,0-5.33-2.3A12.46,12.46,0,0,0,28.56,224a25.35,25.35,0,0,0-8.86-.23c-.11,0-.1.18,0,.17a21.36,21.36,0,0,1,8.38.6,17.78,17.78,0,0,1,3.38,1.31,17,17,0,0,1,2,1.24,18,18,0,0,0-7.7.08,17,17,0,0,0-2.67.88,7.86,7.86,0,0,0-2.1-.18,12.57,12.57,0,0,0-2.73.39A20.94,20.94,0,0,0,13,230.48a.08.08,0,1,0,.09.14,19.44,19.44,0,0,1,5.06-1.9,16.18,16.18,0,0,1,2.59-.38,11.68,11.68,0,0,1,1.45,0,16.66,16.66,0,0,0-8.14,8.12c-.05.09.1.18.14.08a15.34,15.34,0,0,1,10.38-8.33c.28-.07.57-.1.85-.16a11.46,11.46,0,0,0-.14,1.27c-.08.64-.19,1.28-.32,1.91a31.45,31.45,0,0,1-1,3.84,31.06,31.06,0,0,1-1.53,3.73,17.87,17.87,0,0,1-2.13,3.6.08.08,0,1,0,.13.09c.76-1.18,1.64-2.27,2.33-3.51a26.45,26.45,0,0,0,1.71-3.66,24.87,24.87,0,0,0,1.12-3.94c.14-.71.25-1.42.33-2.14A4.72,4.72,0,0,0,26,228a17.23,17.23,0,0,1,4.48-.09c-.56,3.13-1.16,6.4-2.92,9.12,0,.09.1.17.15.08a37.65,37.65,0,0,0,2.16-4.48A16.7,16.7,0,0,0,31,227.91a20.7,20.7,0,0,1,7.4,2.48,24.47,24.47,0,0,1,9.85,10.78,40.48,40.48,0,0,1,3.65,15.44c.42,6.71.51,13.46,1.18,20.16,0,.43.73.58.82.09A24.14,24.14,0,0,0,54,272.36Z"/><path class="cls-5" d="M39.2,228.62a7.46,7.46,0,0,0-1.46-1.34c-.52-.44-1.06-.85-1.62-1.24a12.38,12.38,0,0,0-3.63-1.68c-.1,0-.14.14,0,.16A9.59,9.59,0,0,1,36,226.28c.54.4,1,.82,1.55,1.25a9.25,9.25,0,0,0,1.47,1.25C39.14,228.83,39.26,228.71,39.2,228.62Z"/><path class="cls-5" d="M18.81,233.38a38.93,38.93,0,0,0-2.93,3.87,22.81,22.81,0,0,0-2.18,4.33s.05.07.07,0a51.62,51.62,0,0,1,5.16-8.12C19,233.41,18.87,233.29,18.81,233.38Z"/><path class="cls-5" d="M32.55,232.08a9.28,9.28,0,0,1-.72,2.37,15.23,15.23,0,0,1-1.22,2.11s0,.09.08.05a8.51,8.51,0,0,0,2-4.49C32.73,232,32.57,232,32.55,232.08Z"/><path class="cls-4" d="M53.07,237.73s9-11.37,26.51-7.34c16.59,3.83,24.25,34.26,7.48,37.9S73.25,243.77,67.14,239C62.65,235.49,56.2,236.24,53.07,237.73Z"/><path class="cls-5" d="M93.06,247a35.75,35.75,0,0,0-3.6-2.76,15.59,15.59,0,0,0-3.83-1.91,23,23,0,0,0-2.28-2.93,22.77,22.77,0,0,0-5.27-4.2c.17,0,.34,0,.52,0,.92,0,1.84,0,2.77,0a15.44,15.44,0,0,1,5.39,1.35.09.09,0,0,0,.07-.16,24.71,24.71,0,0,0-5.38-1.62,15.56,15.56,0,0,0-2.73-.23c-.49,0-1,0-1.46.08l-.28,0a23.07,23.07,0,0,0-5-1.85l.49-.14a25,25,0,0,1,2.59-.42,20.27,20.27,0,0,1,5.22.08c.11,0,.14-.15,0-.16a32.09,32.09,0,0,0-5.28-.22,22.67,22.67,0,0,0-4.39.57,22.59,22.59,0,0,0-3.18-.36c-6.09-.26-12.73,2-16.48,7s-4.48,11.69-5.14,17.73a134.57,134.57,0,0,0-.67,25.38c0,.5.74.41.76-.07.23-7.17.48-14.35,1.17-21.5.31-3.31.67-6.63,1.22-9.92a29.36,29.36,0,0,1,2.4-8.16,15,15,0,0,1,5.9-6.34,20,20,0,0,1,8.34-2.56,22.49,22.49,0,0,1,7.84.73,5,5,0,0,0-.05,1.55,8.91,8.91,0,0,0,.39,1.9,8.8,8.8,0,0,0,.73,1.7c.32.6.72,1.13,1.09,1.71,0,.09.2,0,.13-.1a7.92,7.92,0,0,1-1.35-3.44,13.49,13.49,0,0,1-.21-1.78c0-.45,0-.91,0-1.35a22.93,22.93,0,0,1,7.63,4c.42.34.83.7,1.23,1.07a8.44,8.44,0,0,0-1.48,1.82,18.23,18.23,0,0,0-1.55,2.76,23.65,23.65,0,0,0-1.62,6.08c0,.1.15.13.17,0a17.59,17.59,0,0,1,2-5.76,25.62,25.62,0,0,1,1.55-2.56c.3-.42.6-.83.92-1.23.17-.22.36-.44.52-.67a24.17,24.17,0,0,1,5,7l0,0a11.84,11.84,0,0,0-2,2.94,26.36,26.36,0,0,0-1.63,3.49A58.66,58.66,0,0,0,82,260.75c0,.1.15.14.17,0a30,30,0,0,1,2.47-7c.52-1.1,1.08-2.17,1.66-3.24a31.93,31.93,0,0,0,1.64-3.05,22.48,22.48,0,0,1,2,8.09c0,.1.17.09.17,0a28.23,28.23,0,0,0-3.92-12.41c1.06.46,2.14.9,3.16,1.45A17.33,17.33,0,0,1,93,247.14C93,247.21,93.14,247.08,93.06,247Z"/><path class="cls-5" d="M80.26,247.66c-.53,1.72-1.19,3.39-1.66,5.14a19.78,19.78,0,0,0-.77,5.13c0,.05.07.05.08,0a49.86,49.86,0,0,1,2.5-10.22A.08.08,0,1,0,80.26,247.66Z"/><path class="cls-5" d="M91.32,243.38A9.7,9.7,0,0,0,89,241.73a17,17,0,0,0-2.67-.95c-.1,0-.14.14,0,.17A10.1,10.1,0,0,1,88.87,242a18.67,18.67,0,0,1,2.38,1.45A.05.05,0,0,0,91.32,243.38Z"/><path class="cls-4" d="M61.67,222.55s1.67-20.43,16.85-27.05c12.68-5.53,19.94,8.72,11,17.44C82.25,220,70.62,216.82,61.67,222.55Z"/><path class="cls-5" d="M86.69,199.46a62.13,62.13,0,0,0-6.75,3.2,49.72,49.72,0,0,0-5.25,3.48c.25-.52.47-1.06.73-1.56a24.78,24.78,0,0,1,1.29-2.31A21.75,21.75,0,0,1,80.05,198c.08-.07,0-.19-.12-.11a32.81,32.81,0,0,0-3.52,4.1A22.87,22.87,0,0,0,75,204.33a8.77,8.77,0,0,0-1,2.35l-.17.12a49.65,49.65,0,0,0-7.25,7.1c0-.2.08-.4.13-.59.29-1,.6-2,.92-3a25.11,25.11,0,0,1,2.75-6c.06-.09-.09-.18-.15-.08A47.4,47.4,0,0,0,67,210.12a22.82,22.82,0,0,0-1,3,14.1,14.1,0,0,0-.49,2.06c-.66.83-1.31,1.68-1.93,2.55C57,227,53.74,238.25,53,249.48a99.28,99.28,0,0,0-.17,10.06,62.15,62.15,0,0,0,.89,10.1c0,.21.37.15.37-.06-.08-2.95-.38-5.89-.44-8.84s0-5.92.28-8.87a82.23,82.23,0,0,1,3.32-17.38,62.24,62.24,0,0,1,7.72-16.34c.64-.13,1.27-.3,1.9-.46s1.52-.39,2.27-.6a22.94,22.94,0,0,0,4.24-1.56c.09,0,0-.19-.09-.14a13.39,13.39,0,0,1-4.3,1.48c-1.18.24-2.42.4-3.61.67a55,55,0,0,1,3.53-4.64,26.43,26.43,0,0,0,8.64-.65,34.22,34.22,0,0,0,4.42-1.37c1.52-.59,3-1.34,4.46-2,.12,0,0-.21-.06-.15a25.51,25.51,0,0,1-8.76,2.87,53.64,53.64,0,0,1-8.19.67c1.08-1.23,2.19-2.44,3.38-3.57,4-3.8,8.72-7.29,14-9.11C86.84,199.58,86.79,199.42,86.69,199.46Z"/><path class="cls-5" d="M74.33,199.52a22.92,22.92,0,0,0-1.86,2.72,15.23,15.23,0,0,0-1.34,3.17,0,0,0,0,0,.06,0c.51-1,.94-2,1.45-3a14.93,14.93,0,0,1,1.81-2.76C74.52,199.55,74.4,199.44,74.33,199.52Z"/><path class="cls-5" d="M88.45,206.32a15.72,15.72,0,0,1-3.11,1.3,27,27,0,0,1-3.17.85s0,.1,0,.09a15.25,15.25,0,0,0,3.28-.72,26.55,26.55,0,0,0,3.08-1.38C88.63,206.42,88.55,206.27,88.45,206.32Z"/><path class="cls-4" d="M49.86,218.87c-.09.88-2.29-7.41-15.13-14.78C23.07,197.4,9.15,180,20.58,169,29.81,160.13,54.12,179.48,49.86,218.87Z"/><path class="cls-5" d="M58.7,266.44a225.33,225.33,0,0,0-2-25.81,116,116,0,0,0-5.42-23.11c-1-2.7-2.05-5.35-3.23-8a19.34,19.34,0,0,0,0-3.05c-.07-1.31-.19-2.62-.31-3.92s-.25-2.61-.4-3.91-.43-2.59-.49-3.89c0-.12-.19-.1-.16,0a28.52,28.52,0,0,1,.46,4.13q.15,1.89.21,3.78c0,1.26,0,2.53,0,3.79,0,.46,0,.94,0,1.43-1.21-2.55-2.5-5.06-3.9-7.51.87-5.32-.26-10.89-1.35-16.09,0-.11-.18-.06-.16,0a45.83,45.83,0,0,1,.85,8.26c0,2.18-.06,4.37-.06,6.55-.31-.52-.62-1.05-.94-1.56-1.66-2.72-3.44-5.39-5.33-8a12.35,12.35,0,0,0-.12-3.79,30.75,30.75,0,0,0-.93-4.15c-.41-1.36-.88-2.69-1.42-4s-1.3-2.63-1.84-4a.08.08,0,1,0-.15.07,19.27,19.27,0,0,1,1.61,4,36,36,0,0,1,1,4c.27,1.35.49,2.71.68,4.07.13.9.21,1.84.36,2.75a99.54,99.54,0,0,0-9-10.46c-.07-.08-.18,0-.11.12a118.78,118.78,0,0,1,13.05,17.76l.41.71c-.7-.44-1.51-.79-2.18-1.16l-3.74-2.06c-1.22-.65-2.43-1.32-3.64-2-.62-.34-1.24-.7-1.87-1a14.89,14.89,0,0,1-2.18-1.2.08.08,0,1,0-.09.13c1.23.68,2.32,1.69,3.52,2.45s2.42,1.5,3.66,2.2c2.28,1.27,4.76,2.19,7,3.51,1.56,2.72,3,5.52,4.32,8.37-1.36-.87-2.76-1.7-4.17-2.49-.91-.51-1.82-1-2.74-1.5a13.3,13.3,0,0,1-2.59-1.56.09.09,0,0,0-.12.12A24.5,24.5,0,0,0,40.1,204c1.65,1,3.31,1.9,5,2.74,1.37,3,2.61,6.07,3.71,9.18,5.41,15.31,7.39,31.55,8.34,47.68.29,4.81.43,9.62.49,14.44s-.19,9.61-.18,14.42c0,.14.23.17.25,0,.58-4.27.68-8.6.87-12.9S58.8,270.82,58.7,266.44Z"/><path class="cls-5" d="M35.37,197.17a62,62,0,0,1-6.82-3.53,73,73,0,0,1-6.48-4.11s-.07,0,0,.06a54.58,54.58,0,0,0,6.22,4.35,63.19,63.19,0,0,0,7,3.38C35.39,197.36,35.47,197.21,35.37,197.17Z"/><path class="cls-5" d="M39.09,179.87c-.19-.74-.42-1.48-.67-2.2a.09.09,0,0,0,0-.09c-.16-.41-.33-.82-.5-1.23l-.06-.15-.1-.24s0,0,0,0,.08.29.13.43,0,.15.06.24a60.42,60.42,0,0,1,1.91,8.71.08.08,0,1,0,.15,0A29.17,29.17,0,0,0,39.09,179.87Z"/><polygon class="cls-6" points="72.27 269.55 71.35 280.41 68.55 313.52 38.5 313.52 35.7 280.41 34.78 269.55 72.27 269.55"/><polygon class="cls-5" points="72.27 269.55 71.35 280.41 35.7 280.41 34.78 269.55 72.27 269.55"/><rect class="cls-6" x="31.84" y="265.19" width="43.38" height="10.42"/></g><g id="Floor"><polygon class="cls-5" points="0 313.52 81.07 313.28 162.14 313.19 324.28 313.03 486.42 313.19 567.49 313.28 648.56 313.52 567.49 313.77 486.42 313.86 324.28 314.02 162.14 313.86 81.07 313.77 0 313.52"/></g><g id="Device"><rect class="cls-3" x="87.64" y="22.41" width="471.59" height="315.46"/><rect class="cls-5" x="91.07" y="26.26" width="464.73" height="307.76"/><rect class="cls-7" x="26.22" y="361.53" width="594.43" height="21.65"/><polygon class="cls-3" points="26.22 361.53 87.64 337.87 559.23 337.87 620.66 361.53 26.22 361.53"/><polygon class="cls-5" points="93.13 353.14 132.77 337.87 514.11 337.87 553.75 353.14 93.13 353.14"/><rect class="cls-8" x="117.34" y="49.64" width="412.21" height="261"/><rect class="cls-9" x="116.99" y="49.64" width="412.56" height="10.04"/><path class="cls-10" d="M125,54.66a2.49,2.49,0,1,1-2.49-2.49A2.5,2.5,0,0,1,125,54.66Z"/><path class="cls-8" d="M135.14,54.66a2.49,2.49,0,1,1-2.49-2.49A2.49,2.49,0,0,1,135.14,54.66Z"/><path class="cls-4" d="M145.31,54.66a2.49,2.49,0,1,1-2.49-2.49A2.49,2.49,0,0,1,145.31,54.66Z"/><rect class="cls-7" x="522.23" y="59.69" width="7.32" height="250.95"/><path class="cls-2" d="M525.88,146.69h0A1.89,1.89,0,0,1,524,144.8V63.05a1.89,1.89,0,0,1,1.89-1.89h0a1.89,1.89,0,0,1,1.89,1.89V144.8A1.89,1.89,0,0,1,525.88,146.69Z"/></g><g id="Password"><rect class="cls-8" x="176.7" y="124.77" width="295.16" height="44.74"/><path class="cls-7" d="M472.36,170H176.2V124.27H472.36ZM177.2,169H471.36V125.27H177.2Z"/><path class="cls-6" d="M202.76,136.89a24.34,24.34,0,0,1,1.17,5.13,40.49,40.49,0,0,1,0,10.24,24.14,24.14,0,0,1-1.18,5.12,23.54,23.54,0,0,1-1.18-5.12,41.12,41.12,0,0,1,0-10.24A25,25,0,0,1,202.76,136.89Z"/><path class="cls-6" d="M213,147.14a24.11,24.11,0,0,1-5.12,1.17,40.49,40.49,0,0,1-10.24,0,24.37,24.37,0,0,1-5.13-1.18,23.76,23.76,0,0,1,5.13-1.18,41.12,41.12,0,0,1,10.24,0A24.77,24.77,0,0,1,213,147.14Z"/><path class="cls-6" d="M210,139.89a24.51,24.51,0,0,1-2.79,4.46A40.95,40.95,0,0,1,200,151.6a23.94,23.94,0,0,1-4.46,2.78,24.43,24.43,0,0,1,2.79-4.45,37.87,37.87,0,0,1,3.4-3.85,40.06,40.06,0,0,1,3.85-3.39A24.27,24.27,0,0,1,210,139.89Z"/><path class="cls-6" d="M210,154.38a23.7,23.7,0,0,1-4.45-2.79,40.95,40.95,0,0,1-7.25-7.24,24.51,24.51,0,0,1-2.79-4.46,24.51,24.51,0,0,1,4.46,2.79,40.95,40.95,0,0,1,7.24,7.25A24.77,24.77,0,0,1,210,154.38Z"/><path class="cls-6" d="M242.7,136.89a24.34,24.34,0,0,1,1.17,5.13,41.78,41.78,0,0,1,.33,5.12,40,40,0,0,1-.32,5.12,24.77,24.77,0,0,1-1.18,5.12,23.54,23.54,0,0,1-1.18-5.12,38.26,38.26,0,0,1-.32-5.12,39.88,39.88,0,0,1,.32-5.12A24.37,24.37,0,0,1,242.7,136.89Z"/><path class="cls-6" d="M252.94,147.14a24.25,24.25,0,0,1-5.12,1.17,40.57,40.57,0,0,1-10.25,0,24.42,24.42,0,0,1-5.12-1.18,23.81,23.81,0,0,1,5.12-1.18,41.2,41.2,0,0,1,10.25,0A24.92,24.92,0,0,1,252.94,147.14Z"/><path class="cls-6" d="M249.94,139.89a24.51,24.51,0,0,1-2.79,4.46,40.95,40.95,0,0,1-7.24,7.25,23.94,23.94,0,0,1-4.46,2.78,24.43,24.43,0,0,1,2.79-4.45,40.95,40.95,0,0,1,7.25-7.24A23.93,23.93,0,0,1,249.94,139.89Z"/><path class="cls-6" d="M249.94,154.38a23.38,23.38,0,0,1-4.45-2.79,37.78,37.78,0,0,1-3.85-3.39,40.16,40.16,0,0,1-3.4-3.85,24.51,24.51,0,0,1-2.79-4.46,24.51,24.51,0,0,1,4.46,2.79,40.95,40.95,0,0,1,7.24,7.25A24.77,24.77,0,0,1,249.94,154.38Z"/><path class="cls-6" d="M282.63,136.89a23.76,23.76,0,0,1,1.18,5.13,39.88,39.88,0,0,1,.32,5.12,38.26,38.26,0,0,1-.32,5.12,23.54,23.54,0,0,1-1.18,5.12,24.11,24.11,0,0,1-1.17-5.12,38.26,38.26,0,0,1-.32-5.12,39.88,39.88,0,0,1,.32-5.12A24.34,24.34,0,0,1,282.63,136.89Z"/><path class="cls-6" d="M292.88,147.14a24.39,24.39,0,0,1-5.12,1.17,40.57,40.57,0,0,1-10.25,0,24.28,24.28,0,0,1-5.12-1.18,23.68,23.68,0,0,1,5.12-1.18,41.2,41.2,0,0,1,10.25,0A25.07,25.07,0,0,1,292.88,147.14Z"/><path class="cls-6" d="M289.88,139.89a24.51,24.51,0,0,1-2.79,4.46,40.95,40.95,0,0,1-7.24,7.25,23.94,23.94,0,0,1-4.46,2.78,24.43,24.43,0,0,1,2.79-4.45,40.07,40.07,0,0,1,7.25-7.24A23.93,23.93,0,0,1,289.88,139.89Z"/><path class="cls-6" d="M289.88,154.38a23.38,23.38,0,0,1-4.45-2.79,39,39,0,0,1-3.86-3.39,41.47,41.47,0,0,1-3.39-3.85,24.51,24.51,0,0,1-2.79-4.46,24.51,24.51,0,0,1,4.46,2.79,40.95,40.95,0,0,1,7.24,7.25A24.77,24.77,0,0,1,289.88,154.38Z"/><path class="cls-6" d="M322.57,136.89a24.37,24.37,0,0,1,1.18,5.13,41.12,41.12,0,0,1,0,10.24,23.54,23.54,0,0,1-1.18,5.12,24.14,24.14,0,0,1-1.18-5.12,40,40,0,0,1-.32-5.12,41.78,41.78,0,0,1,.33-5.12A24.34,24.34,0,0,1,322.57,136.89Z"/><path class="cls-6" d="M332.82,147.14a24.39,24.39,0,0,1-5.12,1.17,40.57,40.57,0,0,1-10.25,0,24.28,24.28,0,0,1-5.12-1.18,23.68,23.68,0,0,1,5.12-1.18,41.2,41.2,0,0,1,10.25,0A25.07,25.07,0,0,1,332.82,147.14Z"/><path class="cls-6" d="M329.82,139.89a24.51,24.51,0,0,1-2.79,4.46,41.58,41.58,0,0,1-3.4,3.85,40.19,40.19,0,0,1-3.84,3.4,24.27,24.27,0,0,1-4.46,2.78,23.38,23.38,0,0,1,2.79-4.45,37.78,37.78,0,0,1,3.39-3.85,40.06,40.06,0,0,1,3.85-3.39A24.35,24.35,0,0,1,329.82,139.89Z"/><path class="cls-6" d="M329.82,154.38a23.78,23.78,0,0,1-4.46-2.79,40.45,40.45,0,0,1-7.24-7.24,23.46,23.46,0,0,1-2.79-4.46,24.86,24.86,0,0,1,4.46,2.79,40.19,40.19,0,0,1,3.84,3.4,41.58,41.58,0,0,1,3.4,3.85A24.77,24.77,0,0,1,329.82,154.38Z"/><path class="cls-6" d="M362.51,136.89a25,25,0,0,1,1.18,5.13,41.12,41.12,0,0,1,0,10.24,23.54,23.54,0,0,1-1.18,5.12,24.14,24.14,0,0,1-1.18-5.12,40.49,40.49,0,0,1,0-10.24A24.34,24.34,0,0,1,362.51,136.89Z"/><path class="cls-6" d="M372.76,147.14a24.34,24.34,0,0,1-5.13,1.17,40.49,40.49,0,0,1-10.24,0,24.14,24.14,0,0,1-5.12-1.18,23.54,23.54,0,0,1,5.12-1.18,41.12,41.12,0,0,1,10.24,0A25,25,0,0,1,372.76,147.14Z"/><path class="cls-6" d="M369.76,139.89a24,24,0,0,1-2.8,4.46,40.06,40.06,0,0,1-3.39,3.85,39.13,39.13,0,0,1-3.85,3.4,23.85,23.85,0,0,1-4.45,2.78,23.38,23.38,0,0,1,2.79-4.45,37.78,37.78,0,0,1,3.39-3.85,40.06,40.06,0,0,1,3.85-3.39A24,24,0,0,1,369.76,139.89Z"/><path class="cls-6" d="M369.76,154.38a23.46,23.46,0,0,1-4.46-2.79,40.45,40.45,0,0,1-7.24-7.24,23.46,23.46,0,0,1-2.79-4.46,24.43,24.43,0,0,1,4.45,2.79,39.13,39.13,0,0,1,3.85,3.4,40.06,40.06,0,0,1,3.39,3.85A24.27,24.27,0,0,1,369.76,154.38Z"/><path class="cls-6" d="M402.45,136.89a24.34,24.34,0,0,1,1.17,5.13,40.49,40.49,0,0,1,0,10.24,24.14,24.14,0,0,1-1.18,5.12,23.54,23.54,0,0,1-1.18-5.12,41.12,41.12,0,0,1,0-10.24A25,25,0,0,1,402.45,136.89Z"/><path class="cls-6" d="M412.69,147.14a24.11,24.11,0,0,1-5.12,1.17,40.49,40.49,0,0,1-10.24,0,24.37,24.37,0,0,1-5.13-1.18,23.76,23.76,0,0,1,5.13-1.18,41.12,41.12,0,0,1,10.24,0A24.77,24.77,0,0,1,412.69,147.14Z"/><path class="cls-6" d="M409.69,139.89a23.46,23.46,0,0,1-2.79,4.46,40.06,40.06,0,0,1-3.39,3.85,41.58,41.58,0,0,1-3.85,3.4,24.18,24.18,0,0,1-4.45,2.78,23.85,23.85,0,0,1,2.78-4.45,39.13,39.13,0,0,1,3.4-3.85,40.06,40.06,0,0,1,3.85-3.39A24.27,24.27,0,0,1,409.69,139.89Z"/><path class="cls-6" d="M409.69,154.38a23.7,23.7,0,0,1-4.45-2.79,40.06,40.06,0,0,1-3.85-3.39,41.58,41.58,0,0,1-3.4-3.85,23.94,23.94,0,0,1-2.78-4.46,24.77,24.77,0,0,1,4.45,2.79,41.58,41.58,0,0,1,3.85,3.4,40.06,40.06,0,0,1,3.39,3.85A23.7,23.7,0,0,1,409.69,154.38Z"/></g><g id="Padlock"><path class="cls-9" d="M374.75,138.09v54.46H359.36V138.09c0-20.71-15.73-37.55-35.08-37.55s-35.08,16.84-35.08,37.55v54.46H273.81V138.09c0-29.66,22.64-53.78,50.47-53.78S374.75,108.43,374.75,138.09Z"/><polygon class="cls-5" points="273.81 152.25 289.2 152.88 289.2 192.56 273.81 192.56 273.81 152.25"/><polygon class="cls-5" points="374.75 156.37 374.75 192.56 359.36 192.56 359.36 155.74 374.75 156.37"/><rect class="cls-4" x="254.09" y="161.54" width="140.39" height="127.37"/><rect class="cls-11" x="324.28" y="161.54" width="70.19" height="127.37"/><path class="cls-5" d="M330.22,229.89l5.87,27.88H311.15L317,229.89a12.47,12.47,0,1,1,13.19,0Z"/></g><g id="Shield"><path class="cls-3" d="M283.5,229.85s-7.34,58.76-19.4,72c-14.48,15.86-25,13.54-30.84,21.72h0c-5.84-8.19-16.35-5.85-30.85-21.73-12.06-13.22-19.39-72-19.39-72,31.79-15.43,50.24-32.73,50.24-32.73v0C233.83,197.67,252.21,214.66,283.5,229.85Z"/><path class="cls-7" d="M233.26,197.14V323.55h0c-5.84-8.19-16.35-5.85-30.85-21.73-12.06-13.22-19.39-72-19.39-72,31.79-15.43,50.24-32.73,50.24-32.73Z"/><path class="cls-7" d="M275.71,234.58s-6.2,49.64-16.39,60.81c-12.25,13.42-21.13,11.45-26.07,18.36-4.94-6.91-13.82-4.94-26.06-18.36-10.19-11.17-16.38-60.81-16.38-60.81,26.85-13,42.44-27.64,42.44-27.64S248.86,221.54,275.71,234.58Z"/><path class="cls-10" d="M190.82,234.58s6.2,49.64,16.39,60.82c12.23,13.4,21.11,11.45,26,18.34V207C232.79,207.4,217.26,221.75,190.82,234.58Z"/><circle class="cls-4" cx="233.26" cy="260.34" r="19.68" transform="translate(-115.77 241.19) rotate(-45)"/><polygon class="cls-8" points="231.01 273.13 222.25 264.02 225.5 260.89 230.33 265.91 240.75 249.93 244.53 252.4 231.01 273.13"/></g><g id="Key"><path class="cls-4" d="M232.65,262.79h12.18a0,0,0,0,1,0,0V405.07a4.9,4.9,0,0,1-4.9,4.9h-2.38a4.9,4.9,0,0,1-4.9-4.9V262.79A0,0,0,0,1,232.65,262.79Z" transform="translate(-137.15 506.25) rotate(-78.95)"/><rect class="cls-11" x="168.85" y="315.34" width="12.19" height="17.18" transform="translate(-176.5 433.56) rotate(-78.95)"/><path class="cls-4" d="M114.32,301.07l-4.15,21.21a27.65,27.65,0,1,0,54.28,10.6l4.14-21.21a27.65,27.65,0,0,0-54.27-10.6Zm45.59,5.32c-1.23,6.31-6.74,10.86-13.55,11.95,5.9,3.58,9.3,9.86,8.06,16.17-1.64,8.43-10.95,13.73-20.78,11.82S117.2,336,118.85,327.56c1.23-6.31,6.74-10.86,13.56-11.95-5.91-3.57-9.3-9.86-8.07-16.17,1.65-8.44,10.94-13.72,20.76-11.8S161.56,297.94,159.91,306.39Z"/><rect class="cls-4" x="155.43" y="320.01" width="27.69" height="5.62" rx="2.26" transform="translate(-180 427.1) rotate(-78.95)"/><rect class="cls-4" x="160.94" y="321.09" width="27.69" height="5.62" rx="2.26" transform="translate(-176.6 433.38) rotate(-78.95)"/><polygon class="cls-4" points="273.96 331.95 278.13 332.76 280.49 320.68 284.04 321.37 282.81 327.67 286.96 328.48 288.19 322.18 291.33 322.8 289.39 332.76 293.55 333.57 295.5 323.61 299.96 324.48 297.37 337.79 301.53 338.6 304.13 325.3 308.35 326.12 305.03 343.12 267.87 335.87 271.19 318.87 276.32 319.87 273.96 331.95"/></g><g id="Character"><path class="cls-12" d="M417.25,269.69l-27.25,22c-5.23,4.18-9.74,7.94-11.89,10.1l0,0a4.78,4.78,0,0,0-1.31,1.67s0,0,0,.06c.19,2.4,32.39,45.16,34,46.28s4.93-3.43,5-6.09-4.93-24.55-4.93-24.55l27-22.25Z"/><path class="cls-3" d="M395.59,287.19,390,291.71c-5.23,4.18-9.74,7.94-11.89,10.1l0,0a9.09,9.09,0,0,0-1.31,1.67s0,0,0,.06c.19,2.4,32.39,45.16,34,46.28s4.93-3.43,5-6.09-4.93-24.55-4.93-24.55l5.74-4.5Z"/><path class="cls-4" d="M410.77,349.86c-1.63-1.12-33.82-43.88-34-46.28-.09-.92,5.87-6,13.24-11.87l.24-.18,21.07,27.35-.47.35s5,21.87,4.93,24.54S412.39,351,410.77,349.86Z"/><path class="cls-5" d="M412.06,348.13c-5.24-7.34-27.11-36.46-32.86-43.32,0-.05-.08,0,0,0,5,7.39,27.14,36.32,32.79,43.37C412.07,348.36,412.18,348.28,412.06,348.13Z"/><path class="cls-5" d="M412.5,321.61c-1.61-3.24-4.65-6.38-8.31-7-.14,0-.17.18-.07.25a49.59,49.59,0,0,1,8,7A.23.23,0,0,0,412.5,321.61Z"/><path class="cls-5" d="M412.81,324.58c-1.61-3.23-4.66-6.37-8.31-7-.14,0-.17.18-.08.25a49.66,49.66,0,0,1,8,7A.23.23,0,0,0,412.81,324.58Z"/><path class="cls-5" d="M413.11,327.56c-1.6-3.24-4.65-6.38-8.3-7-.14,0-.18.17-.08.24a50.15,50.15,0,0,1,8,7A.22.22,0,0,0,413.11,327.56Z"/><path class="cls-6" d="M432,243.46C430.05,253,390.52,291,390.52,291l27.56,31.81s56.12-56,53.19-77.07c-2.55-18.31-30-91.94-30-91.94H409.69S433.87,234.1,432,243.46Z"/><path class="cls-6" d="M432,243.46C430.05,253,390.52,291,390.52,291l27.56,31.81s56.12-56,53.19-77.07c-2.55-18.31-30-91.94-30-91.94H409.69S433.87,234.1,432,243.46Z"/><path class="cls-5" d="M421.21,315.25c-3.66-4.56-2.54-3.3-6.25-7.82-1.82-2.21-13.77-16.72-15.83-18.48,0,0-.12,0-.09.07,1.38,2.34,13.58,16.64,15.44,18.81,3.8,4.45,2.76,3.13,6.6,7.53A.09.09,0,0,0,421.21,315.25Z"/><path class="cls-5" d="M435.91,238.82c-.46-2.38-1-4.75-1.47-7.11q-1.54-7.26-3.27-14.48-3.42-14.29-7.43-28.45c-2.69-9.47-5.54-18.92-8.83-28.2-.4-1.14-.82-2.28-1.24-3.43a.07.07,0,0,0-.14,0c2.85,9.3,5.78,18.57,8.44,27.92s5.11,18.67,7.43,28.07c1.16,4.72,2.24,9.46,3.3,14.21q.78,3.5,1.52,7a50.79,50.79,0,0,1,1.33,7.21,11.06,11.06,0,0,1-1.86,6.5c-1.19,1.94-2.58,3.77-3.93,5.6-2.7,3.66-28.44,32.34-29.27,33.12-.07.06,0,.16.1.1,3.45-3.1,25.29-26.74,28.06-30.4,1.38-1.81,2.71-3.65,4-5.5a21.53,21.53,0,0,0,3.14-5.54A13.07,13.07,0,0,0,435.91,238.82Z"/><path class="cls-5" d="M435.84,153.8l-5.74,75.35c-5.48-25.79-20.41-75.35-20.41-75.35Z"/><path class="cls-12" d="M422.28,309s6.83,33.24,6.83,33.26c.09,6.7.29,12.57.67,15.59a.09.09,0,0,0,0,.05,4.57,4.57,0,0,0,.52,2.06l0,0c2,1.33,55.53,2.16,57.41,1.56s.32-6-1.74-7.69-22.4-11.17-22.4-11.17l-7.16-33.22Z"/><path class="cls-3" d="M487.76,361.51c-1.87.59-55.4-.23-57.41-1.55l0,0a4.66,4.66,0,0,1-.52-2.06.09.09,0,0,1,0-.05c-.39-3-.58-8.89-.68-15.58,0,0-1.18-5.79-1.18-5.79h34.35l1.34,6.22S484,352.13,486,353.83,489.65,360.92,487.76,361.51Z"/><path class="cls-4" d="M487.76,361.51c-1.88.6-55.4-.23-57.41-1.56-.78-.49-1.11-8.29-1.24-17.74v-.29l34.53.15,0,.58S484,352.13,486,353.83,489.64,360.92,487.76,361.51Z"/><path class="cls-5" d="M487.19,359.42c-9-.36-45.43-1-54.37-.64-.07,0-.07.06,0,.06,8.93.55,45.34.87,54.37.73C487.38,359.57,487.38,359.43,487.19,359.42Z"/><path class="cls-5" d="M466.52,342.8c-3.54-.71-7.89-.24-10.65,2.25-.1.1,0,.25.15.21a49.65,49.65,0,0,1,10.48-2A.23.23,0,0,0,466.52,342.8Z"/><path class="cls-5" d="M469.05,344.39c-3.53-.72-7.89-.24-10.64,2.24-.1.1,0,.25.15.22a49.68,49.68,0,0,1,10.47-2A.23.23,0,0,0,469.05,344.39Z"/><path class="cls-5" d="M471.59,346c-3.54-.72-7.89-.24-10.64,2.25-.11.09,0,.24.15.21a49.68,49.68,0,0,1,10.47-2A.23.23,0,0,0,471.59,346Z"/><path class="cls-6" d="M438.26,153.81a129.07,129.07,0,0,0-2.72,15.78c-.65,6.62-1.48,12.47-2.36,13.2s-6,4-7.68,5.06c0,0,15.58,47.24,19.6,63,5.83,22.83,19.79,91.31,19.79,91.31h-37.2s-11.31-65.2-16.26-86.93C407.19,236.58,391,180.68,391,180.68a32.41,32.41,0,0,1,1.32-26.87S438.27,153.78,438.26,153.81Z"/><path class="cls-5" d="M463.55,334.9c-5.85,0-4.17-.1-10-.07-2.86,0-21.66.15-24.32.63a.06.06,0,0,0,0,.12c2.68.4,21.47-.05,24.33-.12,5.85-.15,4.17-.17,10-.38A.09.09,0,0,0,463.55,334.9Z"/><path class="cls-5" d="M435.81,180.92a72,72,0,0,0-10.26,6.87.13.13,0,0,0,.14.22c3.48-2.18,7-4.3,10.39-6.67A.25.25,0,0,0,435.81,180.92Z"/><path class="cls-5" d="M433,155.22c0-.12-.26-.12-.24,0A125.31,125.31,0,0,1,434,167.79c.13,2,.23,12.8-3.22,12.54-.58,0-.95-.55-1.17-1.37a13.72,13.72,0,0,1-.06-3.33c0-2.27,0-4.55-.18-6.82a61.88,61.88,0,0,0-2.08-12.53.11.11,0,0,0-.22.05,116.37,116.37,0,0,1,1.68,17.48c0,2.82-.73,7.19,2.22,7.17s3.83-7.28,3.89-9.24A64.35,64.35,0,0,0,433,155.22Z"/><path class="cls-5" d="M431,180.6a18.14,18.14,0,0,0-.4,2.32,5.24,5.24,0,0,0,0,1.85.13.13,0,0,0,.24,0,6.08,6.08,0,0,0,.5-1.88c.15-.72.31-1.44.44-2.16A.38.38,0,0,0,431,180.6Z"/><path class="cls-5" d="M396.23,180.42a37.07,37.07,0,0,0,9.42-1.78,22.29,22.29,0,0,0,9.14-5.65,17.78,17.78,0,0,0,3.51-4.9c0-.07.14,0,.12,0a16.51,16.51,0,0,1-2.48,4.92,19.06,19.06,0,0,1-4,3.84,21.05,21.05,0,0,1-10.23,3.95,16.38,16.38,0,0,1-5.5-.09C396,180.73,396.05,180.44,396.23,180.42Z"/><path class="cls-5" d="M423.37,314.41c-.1-.86-.22-1.72-.34-2.58-.23-1.65-.51-3.29-.77-4.94-.5-3.3-1.07-6.6-1.66-9.9-1.16-6.56-2.51-13.11-3.93-19.63-.81-3.69-1.74-7.33-2.73-11-.06-.25-.42-.13-.38.12.6,3.33,1.18,6.66,1.86,10s1.36,6.61,2,9.92c1.3,6.55,2.51,13.11,3.81,19.66.36,1.85.7,3.7,1.06,5.55.18.92.36,1.84.56,2.76s.48,1.82.63,2.74c0,.09.15.05.14,0C423.48,316.2,423.47,315.3,423.37,314.41Z"/><path class="cls-5" d="M449,265c-1.24-6.17-2.91-12.27-4.59-18.33-3.38-12.21-7.36-24.24-11.33-36.26L429.66,200c-.57-1.73-3.37-11.07-3.72-12a.08.08,0,0,0-.15,0c.81,3.19,1.91,7.83,2.84,11s1.92,6.2,2.89,9.3c1.9,6.09,3.83,12.17,5.67,18.28,3.65,12.07,7.27,24.14,10.23,36.4.83,3.43,1.66,6.86,2.41,10.31s1.41,6.92,2.13,10.37a.09.09,0,0,0,.17,0C451.51,277.39,450.26,271.17,449,265Z"/><path class="cls-5" d="M425.89,297.27c-2.05-11.78-4.5-23.49-7.22-35.13s-5.77-23.32-9.12-34.85-7.06-23-11.05-34.29a143.64,143.64,0,0,1-5.05-16.31c-1.23-5.51-1.85-11.46-.57-17a27.47,27.47,0,0,1,1.27-4.14c0-.09-.1-.17-.14-.07-4.47,10.42-1.57,21.82,1.84,32.1,1.86,5.63,3.86,11.22,5.7,16.86q2.82,8.69,5.43,17.44c3.43,11.57,6.62,23.21,9.47,34.94s5.4,23.52,7.64,35.37S428.22,316,430.14,328c.25,1.55.44,3.11.65,4.68,0,.08.14.08.13,0C429.49,320.83,427.93,309,425.89,297.27Z"/><path class="cls-12" d="M425.13,104.42c4.38,16,17,35.29,23,38,5.22,2.32,29.44-6.64,38.58-12.46,2.6-1.66-8.15-16.63-11.28-15.58-10.23,3.41-21.36,8.44-22.22,8.15-1.74-.59-12.6-13.91-20.51-22.86C423.83,89.59,423.39,98,425.13,104.42Z"/><path class="cls-12" d="M504,116.39c2.06-.86,17.91-1.37,17.91-4.8s-20.18-2.48-20.18-2.48Z"/><path class="cls-12" d="M473.58,116.79c2.77-3.44,5.21-7.16,7.62-7.84,1.66-.47,19.61.31,22.41.14s12.81.08,13,2.54c.33,3.48-11.51,3.45-12.77,5.22-4.37,6.14-20.95,15.2-20.95,15.2Z"/><path class="cls-5" d="M516.92,111.68a2.7,2.7,0,0,0-1.15-1.54,8.46,8.46,0,0,0-4.28-1,39.08,39.08,0,0,0-6.58-.06c-.05,0-.05.08,0,.08,1.65,0,3.28,0,4.92.18a20.3,20.3,0,0,1,4.45.68,3.64,3.64,0,0,1,1.71,1,1.41,1.41,0,0,1,.33,1.32c-.47,1.51-3.46,2-4.84,2.27-1.8.4-3.67.76-5.48,1.13-.08,0,0,.13,0,.12,1.88-.37,3.86-.52,5.75-.86a9.31,9.31,0,0,0,4.4-1.6A1.73,1.73,0,0,0,516.92,111.68Z"/><path class="cls-4" d="M472.89,114.67l14.2,20.79s-22,11-30.42,10.82c-8-.19-10.91-1.37-13.44-3.76-1.57-1.47-10.48-14.06-17.75-35-6.1-17.55,2.93-15,11-5.25,4,4.85,16.84,19.27,17.48,19.22S472.89,114.67,472.89,114.67Z"/><path class="cls-5" d="M468.52,118.05c2.13,3.08,4.17,6.22,6.18,9.37,1,1.55,4.68,7.85,5.75,9.63,0,.07-.15.19-.2.12-1.11-1.57-5.12-7.86-6.09-9.43-2-3.18-3.89-6.38-5.73-9.64C468.4,118,468.48,118,468.52,118.05Z"/><path class="cls-11" d="M460.93,145.76a18.26,18.26,0,0,1-4.26.52c-8-.18-10.91-1.37-13.44-3.76-1.56-1.47-10.48-14.06-17.74-35a29.49,29.49,0,0,1-2-9.06c0-.2,0-.4,0-.57a4.71,4.71,0,0,1,.05-.54c0-.15,0-.3.07-.43a3.06,3.06,0,0,1,.88-1.71C429.41,101.87,452.71,133.31,460.93,145.76Z"/><rect class="cls-10" x="459.22" y="106.13" width="53.84" height="2.89"/><polygon class="cls-2" points="513.06 106.13 513.06 109.03 480.36 109.03 482.57 106.13 513.06 106.13"/><polygon class="cls-10" points="484.95 109.03 520.96 109.03 539.7 77.2 503.69 77.2 484.95 109.03"/><path class="cls-8" d="M511,93.09c-.67,1.48-.18,3,1.1,3.47a3.06,3.06,0,0,0,3.54-1.88c.67-1.47.18-3-1.1-3.46A3.07,3.07,0,0,0,511,93.09Z"/><path class="cls-3" d="M388.81,164.76c.13.15,56.37-.26,56.88-.84.7-.82-12.62-61.62-18.47-69.09-1.25-1.6-5.33-2-8.79-1.53a15.57,15.57,0,0,0-2.66.57l-.09,0a6.44,6.44,0,0,0-1.95,1c-9.55,7.79-17.38,34.76-19.19,42.85C391.54,151.05,388.34,164.24,388.81,164.76Z"/><path class="cls-4" d="M415.08,94s3.67,25,4.54,31.51,0,40.75,0,40.75l-35.29,3s7.4-22.76,7.47-24.2c0,0,5.85-27.35,11.89-38.65A34.16,34.16,0,0,1,415.08,94Z"/><path class="cls-4" d="M426.83,94.44s4.77,25.33,5.19,27.42,6.53,43.24,6.53,43.24l8.83.18-4.79-18.79S432.34,98.33,426.83,94.44Z"/><path class="cls-12" d="M424.84,102.54c-2.68.3-7.76-3.42-9.18-7.38-.09-.27.71-2.84,1.53-6,.49-1.92,1-4.08,1.31-6.08.06-.41,12.06,5,12.06,5a32.24,32.24,0,0,0-2.43,7.49,4.75,4.75,0,0,0,0,.83v.14C428.09,98.16,427.72,102.21,424.84,102.54Z"/><path class="cls-5" d="M428.09,96.42a.71.71,0,0,1,0,.14,7.79,7.79,0,0,1-1.29-.14c-7.35-1.33-7.84-10.87-7.85-13.27,2.18.67,11.62,4.95,11.62,4.95a32.24,32.24,0,0,0-2.43,7.49A6,6,0,0,0,428.09,96.42Z"/><path class="cls-12" d="M418.64,67.14c-1.93,4.29-1.19,17.49,1.62,20.77,4.08,4.75,11.57,6.1,15.81,1,4.11-4.94,2.85-22.12-.37-25.18C431,59.23,421.48,60.79,418.64,67.14Z"/><path class="cls-5" d="M428.36,76.48s-.07,0-.06.08c.07.89,0,1.92-.78,2.26,0,0,0,.05,0,0C428.5,78.68,428.57,77.31,428.36,76.48Z"/><path class="cls-5" d="M427.52,75.59c-1.43,0-1.4,2.84-.07,2.87S428.72,75.62,427.52,75.59Z"/><path class="cls-5" d="M433.84,76.44s.07,0,.07.08c0,.89.11,1.91.92,2.2,0,0,0,0,0,0C433.84,78.64,433.68,77.28,433.84,76.44Z"/><path class="cls-5" d="M434.62,75.5c1.43-.12,1.58,2.75.25,2.86S433.42,75.61,434.62,75.5Z"/><path class="cls-5" d="M426.37,74.29a11.32,11.32,0,0,0,1.11-.4,1.93,1.93,0,0,0,1-.63.62.62,0,0,0-.1-.74,1.55,1.55,0,0,0-1.53-.14,2.24,2.24,0,0,0-1.26,1A.65.65,0,0,0,426.37,74.29Z"/><path class="cls-5" d="M435.72,73.08a11.33,11.33,0,0,1-1.15-.28,1.88,1.88,0,0,1-1.11-.51.6.6,0,0,1,0-.74,1.51,1.51,0,0,1,1.5-.3,2.19,2.19,0,0,1,1.36.83A.64.64,0,0,1,435.72,73.08Z"/><path class="cls-5" d="M428.07,84.72c.21.21.43.49.75.51a2.33,2.33,0,0,0,1-.23s.05,0,0,0a1.2,1.2,0,0,1-1.13.5,1,1,0,0,1-.71-.78C428,84.71,428,84.69,428.07,84.72Z"/><path class="cls-5" d="M429,82a3.06,3.06,0,0,0,2,1.33,4,4,0,0,0,1.09,0l.21,0,.19,0a.23.23,0,0,0,.18-.21h0a.28.28,0,0,0,0-.09h0V83c0-.68-.07-1.73-.07-1.73.25.13,1.54.69,1.51.33a45.22,45.22,0,0,0-1.28-9.16.08.08,0,0,0-.16,0c.09,2.86.68,5.68.82,8.55a5.39,5.39,0,0,0-1.44-.42c-.1,0,.19,2,.16,2.32v0a4.21,4.21,0,0,1-3.15-.94C429,81.91,428.92,82,429,82Z"/><path class="cls-5" d="M431.69,83.06a3.49,3.49,0,0,1-1.42,1.13,1.59,1.59,0,0,1-1,.08c-.71-.18-.73-.83-.61-1.39A3.86,3.86,0,0,1,429,82,4.64,4.64,0,0,0,431.69,83.06Z"/><path class="cls-13" d="M430.27,84.19a1.59,1.59,0,0,1-1,.08c-.71-.18-.73-.83-.61-1.39A1.68,1.68,0,0,1,430.27,84.19Z"/><path class="cls-5" d="M417.54,78.54s-3.19-7.91-2.1-12c.49-1.86,3.26-2.71,3.26-2.71a4.32,4.32,0,0,1,2-4.06c2.57-1.73,7.89-.38,7.89-.38s4.32-4.49,8.94-1.68.48,7.89.48,7.89,1.4,2.88-3.37,4.17-13.14-2.11-13.14-2.11a31.22,31.22,0,0,1-1.63,9.11A2.83,2.83,0,0,1,417.54,78.54Z"/><path class="cls-5" d="M429.47,59.58a8.84,8.84,0,0,0-3.38-1.2,9.35,9.35,0,0,0-3.21,0,5.27,5.27,0,0,0-4.3,3.31,3.68,3.68,0,0,0,.25,2.85s.07,0,.05,0c-.91-1.6.05-3.71,1.42-4.7a8,8,0,0,1,5.54-1.08,15.83,15.83,0,0,1,3.58,1A.06.06,0,0,0,429.47,59.58Z"/><path class="cls-5" d="M440.71,60.67a4.26,4.26,0,0,0-2.49-3.18,7.36,7.36,0,0,0-4.71-.6,9.22,9.22,0,0,0-4.29,2.22s0,.07,0,0a8.13,8.13,0,0,1,8.11-1.6,4.47,4.47,0,0,1,2.82,2.68,4.42,4.42,0,0,1-.71,3.66,8.32,8.32,0,0,1-3.7,2.67s0,.06,0,0a8.56,8.56,0,0,0,3.61-2.19A4.79,4.79,0,0,0,440.71,60.67Z"/><path class="cls-5" d="M435.72,70.17a15.17,15.17,0,0,1-6.4.06,31.15,31.15,0,0,1-6.4-2c-1.2-.51-2.38-1.06-3.55-1.63,0,0-.06,0,0,.06a34.58,34.58,0,0,0,6.36,3.16,17,17,0,0,0,6.47,1,14.31,14.31,0,0,0,3.56-.64S435.75,70.16,435.72,70.17Z"/><path class="cls-12" d="M420.56,78.21s-2.48-4.49-4.49-3.65-.45,7.14,1.69,8.2a2.28,2.28,0,0,0,3.17-.89Z"/><path class="cls-5" d="M416.56,76.35s-.05.05,0,.06a5.74,5.74,0,0,1,2.58,3.9,1.25,1.25,0,0,0-1.83-.54s0,.09,0,.09a1.41,1.41,0,0,1,1.49.65,7.41,7.41,0,0,1,.6,1.31c.06.15.32.1.28-.06v0C419.93,79.73,418.68,76.78,416.56,76.35Z"/><path class="cls-12" d="M408,99.76c-14.16,15.9-24.81,38.29-24.68,43.56.14,5.8,7.52,26.22,14.55,35.82.91,1.24,6.39.72,11-1.83,4.89-2.69,8.9-7.5,7.94-8.93-3.61-5.36-12.16-26.17-12.08-29.42.07-3,7.08-21.41,9.75-32.06C417.05,96.67,414.58,92.37,408,99.76Z"/><path class="cls-4" d="M389.26,177.57l26.37-12.87s-10.37-23.14-10.39-25.64S412.06,117,414.63,108s1.58-19.19-9.68-5.52-21.1,34-22.22,39.39S389.26,177.57,389.26,177.57Z"/><path class="cls-5" d="M406.6,132.42q.81-2.58,1.68-5.14c.65-1.91,1.32-3.81,2-5.7s1.45-3.64,2.19-5.46c.05-.13.28-.05.24.09-.88,2.43-1.7,4.89-2.52,7.35.62-1.12,1.24-2.24,1.9-3.34.06-.09.2,0,.15.08-.74,1.36-1.52,2.7-2.31,4-.19.59-.39,1.18-.59,1.77-1.11,3.31-2.17,6.63-3.12,10a11.22,11.22,0,0,0-.47,2.29,6.92,6.92,0,0,0,.39,2.63c.48,1.54,1,3.08,1.56,4.6,1.1,3.06,2.3,6.09,3.55,9.09,1.43,3.41,3.06,6.79,4.68,10.12,0,0-1,.26-1,.28s-.08,0-.06-.06.63-.32.64-.32c-1.65-2.89-3.22-5.72-4.61-8.74s-2.6-6.05-3.71-9.15c-.57-1.59-1.12-3.2-1.62-4.81a9.06,9.06,0,0,1-.45-4.72C405.49,135.64,406.09,134,406.6,132.42Z"/><path class="cls-5" d="M388.83,170.15a27.06,27.06,0,0,1,2.88-1.36c.86-.4,1.71-.82,2.58-1.21,1.88-.84,3.76-1.71,5.65-2.55s3.77-1.68,5.66-2.5,3.75-1.7,5.67-2.41c.07,0,.12.08.06.12-1.75,1.07-3.62,2-5.46,2.89s-3.65,1.75-5.5,2.58-3.79,1.63-5.7,2.41c-.92.37-1.85.71-2.79,1a22.91,22.91,0,0,1-3,1.07C388.82,170.25,388.78,170.18,388.83,170.15Z"/></g></g></svg>